# AST/ASF file generated using VICON BodyLanguage
# -----------------------------------------------
:version 1.10
:name VICON
:units
  mass 1.0
  length 0.45
  angle deg
:documentation
   .ast/.asf automatically generated from VICON data using
   VICON BodyBuilder and BodyLanguage model FoxedUp or BRILLIANT.MOD
:root
   order TX TY TZ RX RY RZ
   axis XYZ
   position 0 0 0  
   orientation 0 0 0 
:bonedata
  begin
     id 1 
     name lhipjoint
     direction 0.499407 -0.589134 0.635228 
     length 2.99786 
     axis 0 0 0  XYZ
  end
  begin
     id 2 
     name lfemur
     direction 0.34202 -0.939693 0  
     length 6.89561  
     axis 0 0 20  XYZ
    dof rx ry rz
    limits (-160.0 20.0)
           (-70.0 70.0)
           (-60.0 70.0)
  end
  begin
     id 3 
     name ltibia
     direction 0.34202 -0.939693 0   
     length 8.00494   
     axis 0 0 20   XYZ
    dof rx
    limits (-10.0 170.0)
  end
  begin
     id 4 
     name lfoot
     direction 0.0680929 -0.194353 0.978565   
     length 2.06695   
     axis -90 7.62852e-016 20   XYZ
    dof rx rz
    limits (-45.0 90.0)
           (-70.0 20.0)
  end
  begin
     id 5 
     name ltoes
     direction 1.5346e-011 -4.21731e-011 1   
     length 1.04539   
     axis -90 7.62852e-016 20   XYZ
    dof rx
    limits (-90.0 20.0)
  end
  begin
     id 6 
     name rhipjoint
     direction -0.347526 -0.63762 0.687508   
     length 2.76989  
     axis 0 0 0  XYZ 
  end
  begin
     id 7 
     name rfemur
     direction -0.34202 -0.939693 0   
     length 6.97892   
     axis 0 0 -20   XYZ
    dof rx ry rz
    limits (-160.0 20.0)
           (-70.0 70.0)
           (-70.0 60.0)
  end
  begin
     id 8 
     name rtibia
     direction -0.34202 -0.939693 0   
     length 7.77056   
     axis 0 0 -20   XYZ
    dof rx
    limits (-10.0 170.0)
 end
 begin
     id 9 
     name rfoot
     direction -0.102685 -0.282124 0.953867   
     length 2.15099  
     axis -90 -7.62852e-016 -20   XYZ
    dof rx rz
    limits (-45.0 90.0)
           (-20.0 70.0)
  end
  begin
     id 10 
     name rtoes
     direction -0.000106751 -0.00118973 0.999999   
     length 1.0765   
     axis -90 -7.62852e-016 -20   XYZ
    dof rx
    limits (-90.0 20.0)
  end
  begin
     id 11 
     name lowerback
     direction -0.0190651 0.988667 0.148909   
     length 1.90627   
     axis 0 0 0   XYZ
    dof rx ry rz
    limits (-20.0 45.0)
           (-30.0 30.0)
           (-30.0 30.0)
  end
  begin
     id 12 
     name upperback
     direction -0.0180344 0.995767 -0.0901298   
     length 1.88167   
     axis 0 0 0   XYZ
    dof rx ry rz
    limits (-20.0 45.0)
           (-30.0 30.0)
           (-30.0 30.0)
  end
  begin
     id 13 
     name thorax
     direction -0.00329861 0.986394 -0.164366   
     length 1.91528   
     axis 0 0 0   XYZ
    dof rx ry rz
    limits (-20.0 45.0)
           (-30.0 30.0)
           (-30.0 30.0)
  end
  begin
     id 14 
     name lowerneck
     direction -0.0177752 0.978637 -0.204826   
     length 2.09812   
     axis 0 0 0   XYZ
    dof rx ry rz
    limits (-20.0 45.0)
           (-30.0 30.0)
           (-30.0 30.0)
  end
  begin
     id 15 
     name upperneck
     direction 0.108032 0.994134 0.00511541   
     length 2.11937   
     axis 0 0 0   XYZ
    dof rx ry rz
    limits (-20.0 45.0)
           (-30.0 30.0)
           (-30.0 30.0)
  end
  begin
     id 16
     name head
     direction 0.0423659 0.998938 0.0181058  
     length 2.14816  
     axis 0 0 0   XYZ
    dof rx ry rz
    limits (-20.0 45.0)
           (-30.0 30.0)
           (-30.0 30.0)
  end
  begin
     id 17 
     name lclavicle
     direction 0.869509 0.396908 0.293968  
     length 4.73713  
     axis 0 0 0   XYZ
    dof ry rz
    limits (-20.0 10.0)
           (0.0 20.0)
  end
  begin
     id 18 
     name lhumerus
     direction 1 -4.49e-011 3.63829e-027   
     length 4.72096   
     axis 180 -30 -90   XYZ
    dof rx ry rz
    limits (-60.0 90.0)
           (-90.0 90.0)
           (-90.0 90.0)
  end
  begin
     id 19
     name lradius
     direction 1 -4.48932e-011 7.19196e-027   
     length 3.18148   
     axis 180 -30 -90   XYZ
    dof rx
    limits (-10.0 170.0)
  end
  begin
     id 20
     name lwrist
     direction 1 -4.48995e-011 1.85462e-026   
     length 1.59074   
     axis -1.20349e-014 90 90   XYZ
    dof ry
    limits (-180.0 0.0)
 end
  begin
     id 21 
     name lhand
     direction 1 -4.48943e-011 3.70924e-026   
     length 0.848715   
     axis -2.36681e-014 90 90   XYZ
    dof rx rz
    limits (-90.0 90.0)
           (-45.0 45.0)
  end
  begin
     id 22 
     name lfingers
     direction 1 -4.48949e-011 7.41849e-026   
     length 0.684256   
     axis -4.73363e-014 90 90   XYZ
    dof rx
    limits (0.0 90.0)
  end
  begin
     id 23
     name lthumb
     direction 0.707107 -6.35018e-011 0.707107   
     length 0.982458   
     axis -90 45 2.85299e-015   XYZ
    dof rx rz
    limits (-45.0 45.0)
           (-45.0 45.0)
  end
  begin
     id 24 
     name rclavicle
     direction -0.923214 0.372787 0.0932992   
     length 4.28107  
     axis 0 0 0   XYZ 
    dof ry rz
    limits (-10.0 20.0)
           (-20.0 0.0)
  end
  begin
     id 25 
     name rhumerus
     direction -1 -4.48968e-011 6.59881e-018  
     length 4.76918   
     axis 180 30 90   XYZ
    dof rx ry rz
    limits (-90.0 60.0)
           (-90.0 90.0)
           (-90.0 90.0)
  end
  begin
     id 26 
     name rradius
     direction -1 0.000264575 -0.000152753   
     length 3.36438   
     axis 180 30 90   XYZ
    dof rx
    limits (-10.0 170.0)
  end
  begin
     id 27 
     name rwrist
     direction -1 -4.86632e-005 -0.00030086   
     length 1.68219   
     axis -1.20349e-014 -90 -90   XYZ
    dof ry
    limits (-180.0 0.0)
  end
  begin
     id 28
     name rhand
     direction -1 -4.48915e-011 3.70924e-026   
     length 0.767694   
     axis -2.36681e-014 -90 -90   XYZ
    dof rx rz
    limits (-90.0 90.0)
           (-45.0 45.0)
  end
  begin
     id 29
     name rfingers
     direction -1 -4.49015e-011 7.41849e-026   
     length 0.618935   
     axis -4.73363e-014 -90 -90   XYZ
    dof rx
    limits (0.0 90.0)
  end
  begin
     id 30
     name rthumb
     direction -0.707107 -6.34859e-011 0.707107   
     length 0.88867   
     axis -90 -45 -2.85299e-015   XYZ
    dof rx rz
    limits (-45.0 45.0)
           (-45.0 45.0)
  end
:hierarchy
  begin
    root lhipjoint rhipjoint lowerback
    lhipjoint lfemur
    lfemur ltibia
    ltibia lfoot
    lfoot ltoes
    rhipjoint rfemur
    rfemur rtibia
    rtibia rfoot
    rfoot rtoes
    lowerback upperback
    upperback thorax
    thorax lowerneck lclavicle rclavicle
    lowerneck upperneck
    upperneck head
    lclavicle lhumerus
    lhumerus lradius
    lradius lwrist
    lwrist lhand lthumb
    lhand lfingers
    rclavicle rhumerus
    rhumerus rradius
    rradius rwrist
    rwrist rhand rthumb
    rhand rfingers
  end

#!OML:ASF C:\Documents and Settings\Administrator\Desktop\New Folder (2)\VR_Jason.ASF
:FULLY-SPECIFIED
:DEGREES
319
root -0.457276 17.7854 -0.895686 20.4947 -4.93553 0.711951
lowerback -21.2306 1.17866 -1.29023
upperback 8.96445 2.54972 -2.48487
thorax 22.5546 1.12811 -1.13026
lowerneck 24.4221 -1.10627 -4.09201
upperneck -12.2356 -1.9959 4.5787
head -7.6269 -1.22532 2.45893
rclavicle -1.47101e-014 1.98785e-015
rhumerus -48.4604 12.2614 -66.6351
rradius 88.3021
rwrist -11.3816
rhand -20.3431 25.2265
rfingers 7.12502
rthumb 6.00857 -4.66827
lclavicle -1.47101e-014 1.98785e-015
lhumerus -47.1814 -15.8548 60.1019
lradius 89.5979
lwrist 13.1901
lhand -13.4373 34.2907
lfingers 7.12502
lthumb 12.6716 63.8863
rfemur -34.3629 -9.21895 13.7436
rtibia 28.1055
rfoot -9.53827 -15.7471
rtoes -14.6313
lfemur -32.8035 -0.246541 -14.2718
ltibia 28.0855
lfoot -17.5946 16.7217
ltoes -14.8679
320
root -0.463667 17.7868 -0.856776 20.4338 -4.78122 0.447023
lowerback -21.2032 1.09492 -1.20834
upperback 8.80927 2.39538 -2.45955
thorax 22.3243 1.075 -1.20853
lowerneck 25.4634 -0.952961 -3.73369
upperneck -12.5786 -1.79408 4.052
head -7.92642 -1.09686 2.21816
rclavicle 1.59028e-014 -1.47101e-014
rhumerus -52.0953 10.7423 -64.3473
rradius 91.1725
rwrist -12.7798
rhand -18.3361 24.8308
rfingers 7.12502
rthumb 7.94591 -4.9999
lclavicle 1.59028e-014 -1.47101e-014
lhumerus -50.3655 -13.6868 57.5672
lradius 91.5637
lwrist 14.8449
lhand -9.71843 34.1294
lfingers 7.12502
lthumb 16.2548 63.468
rfemur -34.0343 -9.26324 14.087
rtibia 27.901
rfoot -9.4572 -15.7454
rtoes -15.315
lfemur -32.6057 -0.531846 -13.8549
ltibia 28.1425
lfoot -17.7127 17.0618
ltoes -15.1625
321
root -0.470473 17.7918 -0.820745 20.4398 -4.52765 0.10949
lowerback -21.2865 1.00187 -1.13084
upperback 8.60143 2.20754 -2.31828
thorax 22.084 0.993713 -1.16087
lowerneck 26.4983 -0.875487 -3.35968
upperneck -12.7532 -1.71628 3.37472
head -8.16239 -1.00937 1.93309
rclavicle -1.51076e-014 2.22639e-014
rhumerus -55.333 9.49637 -61.519
rradius 94.0663
rwrist -14.7647
rhand -17.3963 24.9107
rfingers 7.12502
rthumb 8.8529 -4.88363
lclavicle -1.51076e-014 2.22639e-014
lhumerus -52.7378 -11.6091 54.3972
lradius 93.5807
lwrist 16.3366
lhand -5.06475 33.9153
lfingers 7.12502
lthumb 20.7312 62.828
rfemur -33.7328 -9.38811 14.5281
rtibia 27.6808
rfoot -9.49643 -15.7207
rtoes -15.3243
lfemur -32.5322 -0.789268 -13.3537
ltibia 28.248
lfoot -17.707 17.269
ltoes -15.4579
322
root -0.476924 17.796 -0.790759 20.4532 -4.28667 -0.30754
lowerback -21.4043 0.918277 -0.939699
upperback 8.44486 2.01091 -2.22471
thorax 21.9439 0.929718 -1.23645
lowerneck 27.3261 -0.835877 -2.8843
upperneck -12.8443 -1.64154 2.7118
head -8.33642 -0.926992 1.63012
rclavicle 4.77083e-015 4.77083e-015
rhumerus -57.6627 8.51238 -58.331
rradius 96.749
rwrist -16.2044
rhand -17.2469 25.4707
rfingers 7.12502
rthumb 8.99707 -4.31741
lclavicle 4.77083e-015 4.77083e-015
lhumerus -54.0873 -9.72841 50.3885
lradius 95.1968
lwrist 17.4382
lhand -0.119445 33.6904
lfingers 7.12502
lthumb 25.476 62.0076
rfemur -33.4079 -9.37585 15.01
rtibia 27.4542
rfoot -9.69618 -15.8028
rtoes -14.6195
lfemur -32.5002 -0.93432 -12.7948
ltibia 28.3634
lfoot -17.4824 17.4285
ltoes -16.5103
323
root -0.487225 17.7947 -0.765636 20.3992 -3.9779 -0.678108
lowerback -21.4479 0.816852 -0.772757
upperback 8.26128 1.80767 -2.19362
thorax 21.7239 0.865831 -1.37366
lowerneck 28.3744 -0.722007 -2.61172
upperneck -13.0507 -1.46792 2.42563
head -8.58166 -0.82923 1.47616
rclavicle -6.75868e-015 2.14687e-014
rhumerus -59.0009 7.5863 -54.449
rradius 98.9557
rwrist -16.2421
rhand -16.456 25.59
rfingers 7.12502
rthumb 9.76021 -4.1638
lclavicle -6.75868e-015 2.14687e-014
lhumerus -54.6463 -8.32182 45.8374
lradius 96.4508
lwrist 18.3353
lhand 4.28817 32.7858
lfingers 7.12502
lthumb 29.6908 60.4286
rfemur -32.991 -9.24674 15.43
rtibia 27.238
rfoot -9.81149 -16.1744
rtoes -14.102
lfemur -32.455 -1.0094 -12.2876
ltibia 28.4899
lfoot -17.5626 17.4232
ltoes -16.8617
